<?xml version="1.0" standalone="no"?><!DOCTYPE svg PUBLIC "-//W3C//DTD SVG 1.1//EN" "http://www.w3.org/Graphics/SVG/1.1/DTD/svg11.dtd"><svg t="1501157147315" class="icon" style="" viewBox="0 0 1025 1024" version="1.1" xmlns="http://www.w3.org/2000/svg" p-id="1445" xmlns:xlink="http://www.w3.org/1999/xlink" width="200.1953125" height="200"><defs><style type="text/css"></style></defs><path d="M413.696 475.136c38.228992 0 67.243008 13.652992 87.04 40.96 19.796992 27.307008 30.379008 54.612992 31.744 81.92 0 0 0 40.96 0 40.96 0 38.228992-6.827008 70.996992-20.48 98.304-13.652992 27.307008-30.72 47.104-51.2 59.392-20.48 12.288-40.619008 21.504-60.416 27.648-19.796992 6.144-36.523008 9.899008-50.176 11.264 0 0-20.48 0-20.48 0 0 0-329.728 0-329.728 0 0 0 0-661.504 0-661.504 0 0 329.728 0 329.728 0 53.248 0 96.596992 15.019008 130.048 45.056 33.451008 30.036992 50.176 73.728 50.176 131.072 0 34.132992-7.851008 61.780992-23.552 82.944-15.700992 21.163008-31.744 33.792-48.128 37.888 0 0-24.576 4.096-24.576 4.096m-268.288-184.32c0 0 0 147.456 0 147.456 0 0 174.08 0 174.08 0 17.748992 0 31.403008-5.12 40.96-15.36 9.556992-10.24 14.336-31.060992 14.336-62.464 0-20.48-3.755008-36.523008-11.264-48.128-7.508992-11.604992-15.36-18.091008-23.552-19.456 0 0-10.24-2.048-10.24-2.048 0 0-184.32 0-184.32 0 0 0 0 0 0 0m176.128 425.984c50.516992 0 75.776-28.672 75.776-86.016 0-27.307008-5.460992-48.468992-16.384-63.488-10.923008-15.019008-21.844992-23.211008-32.768-24.576 0 0-18.432-2.048-18.432-2.048 0 0-184.32 0-184.32 0 0 0 0 176.128 0 176.128 0 0 176.128 0 176.128 0 0 0 0 0 0 0m479.232-374.784c47.787008 0 88.064 9.899008 120.832 29.696 32.768 19.796992 55.636992 43.691008 68.608 71.68 12.971008 27.988992 22.187008 55.979008 27.648 83.968 5.460992 27.988992 7.508992 51.540992 6.144 70.656 0 0-2.048 30.72-2.048 30.72 0 0-327.68 0-327.68 0 0 36.864 9.216 64.852992 27.648 83.968 18.432 19.115008 37.204992 28.672 56.32 28.672 0 0 26.624 2.048 26.624 2.048 31.403008 0 55.636992-5.803008 72.704-17.408 17.067008-11.604992 26.283008-22.868992 27.648-33.792 0 0 2.048-18.432 2.048-18.432 0 0 110.592 0 110.592 0 0 55.979008-18.091008 98.304-54.272 126.976-36.180992 28.672-72.020992 43.691008-107.52 45.056 0 0-55.296 2.048-55.296 2.048-49.152 0-90.795008-8.532992-124.928-25.6-34.132992-17.067008-58.708992-38.228992-73.728-63.488-15.019008-25.259008-26.283008-50.176-33.792-74.752-7.508992-24.576-11.264-45.056-11.264-61.44 0 0 0-26.624 0-26.624 0-6.827008 0.340992-16.043008 1.024-27.648 0.683008-11.604992 5.460992-32.084992 14.336-61.44 8.875008-29.355008 21.163008-54.955008 36.864-76.8 15.700992-21.844992 40.276992-41.984 73.728-60.416 33.451008-18.432 72.704-27.648 117.76-27.648 0 0 0 0 0 0m100.352 198.656c0-2.731008-0.340992-6.484992-1.024-11.264-0.683008-4.779008-2.731008-12.971008-6.144-24.576-3.412992-11.604992-7.851008-21.844992-13.312-30.72-5.460992-8.875008-15.019008-17.067008-28.672-24.576-13.652992-7.508992-29.355008-11.264-47.104-11.264-28.672 0-52.564992 8.532992-71.68 25.6-19.115008 17.067008-30.72 34.475008-34.816 52.224 0 0-6.144 24.576-6.144 24.576 0 0 208.896 0 208.896 0 0 0 0 0 0 0m26.624-327.68c0 0 0 79.872 0 79.872 0 0-262.144 0-262.144 0 0 0 0-79.872 0-79.872 0 0 262.144 0 262.144 0 0 0 0 0 0 0" p-id="1446"></path></svg>