<?xml version="1.0" standalone="no"?><!DOCTYPE svg PUBLIC "-//W3C//DTD SVG 1.1//EN" "http://www.w3.org/Graphics/SVG/1.1/DTD/svg11.dtd"><svg t="1501158985171" class="icon" style="" viewBox="0 0 1024 1024" version="1.1" xmlns="http://www.w3.org/2000/svg" p-id="1567" xmlns:xlink="http://www.w3.org/1999/xlink" width="200" height="200"><defs><style type="text/css"></style></defs><path d="M752.762971 501.412874c-38.911218-7.541767-19.965727-28.483728-19.965727-28.483728s38.063921-62.813604-7.556093-108.449991c-56.570413-56.544831-193.980993 7.198959-193.980993 7.198959-52.490491 16.306384-38.558178-7.455809-31.121811-47.791469 0-47.564295-16.307408-128.043235-156.105361-80.483033C204.377272 291.186895 84.424296 458.636628 84.424296 458.636628 1.039167 569.923224 12.11441 655.931087 12.11441 655.931087c20.829398 189.871395 222.569098 242.002706 379.49515 254.349919 165.06236 12.933567 387.898541-56.904011 455.428563-200.436008C914.608056 566.099129 791.829731 509.219677 752.762971 501.412874L752.762971 501.412874zM403.830907 856.756975c-163.91728 7.633864-296.386314-74.556043-296.386314-183.892217 0-109.513206 132.469034-197.296505 296.386314-204.859761 163.961282-7.573489 296.707632 60.026118 296.707632 169.266102C700.538539 746.607272 567.792189 849.27149 403.830907 856.756975L403.830907 856.756975zM403.830907 856.756975" p-id="1568"></path><path d="M371.110691 540.110221C206.300065 559.396473 225.33663 713.800076 225.33663 713.800076s-1.699712 48.89664 44.187385 73.786517c96.437399 52.225455 195.736986 20.624736 245.934249-44.177152C565.640176 678.596296 536.21603 520.978489 371.110691 540.110221L371.110691 540.110221zM329.512271 756.819868c-30.730908 3.613294-55.5512-14.153348-55.5512-39.881312 0-25.65838 22.023596-52.491515 52.812833-55.689347 35.358299-3.387144 58.389852 16.98586 58.389852 42.74043C385.164778 729.623459 360.210433 753.307881 329.512271 756.819868L329.512271 756.819868zM426.702823 674.062026c-10.431583 7.770987-23.235191 6.703679-28.727275-2.639107-5.760191-9.120728-3.592828-23.75503 6.924713-31.40936 12.20702-9.094122 24.914436-6.449899 30.425963 2.642177C440.871521 651.988288 436.895977 666.009629 426.702823 674.062026L426.702823 674.062026zM426.702823 674.062026" p-id="1569"></path><path d="M833.059761 434.576653c13.262048 0 24.583908-9.827833 26.460652-22.661116 0.225127-0.963954 0.36225-1.819438 0.36225-2.888793 20.133549-180.964538-148.318-149.83454-148.318-149.83454-14.96483 0-26.932396 12.105712-26.932396 27.213805 0 14.82566 11.967566 26.904767 26.932396 26.904767 121.003911-26.670429 94.29562 94.284363 94.29562 94.284363C805.861306 422.589644 818.027393 434.576653 833.059761 434.576653L833.059761 434.576653zM833.059761 434.576653" p-id="1570"></path><path d="M813.423539 118.645191c-58.256822-13.647835-118.133537-1.88493-134.922922 1.355881-1.283226 0.105401-2.521426 1.292436-3.717671 1.535983-0.558725 0.127913-0.915859 0.707105-0.915859 0.707105-16.579607 4.699022-28.6669 20.017916-28.6669 38.118156 0 21.553898 17.476023 39.304168 39.302121 39.304168 0 0 21.182438-2.848884 35.57524-8.457626 14.258749-5.749958 134.859477-4.296863 194.805778 96.334046 32.658817 73.430406 14.353916 122.56343 12.078083 130.47461 0 0-7.783267 19.068288-7.783267 37.870516 0 21.674649 17.46579 35.281551 39.122019 35.281551 18.117636 0 33.31578-2.436492 37.783535-33.07735l0.234337 0C1060.669666 243.691161 917.642159 142.958946 813.423539 118.645191L813.423539 118.645191zM813.423539 118.645191" p-id="1571"></path></svg>